<svg viewBox="0 0 385 162" fill="none" xmlns="http://www.w3.org/2000/svg">
    <rect x="0.498047" y="1" width="32" height="32" stroke="#E6E6E6" stroke-width="0.7"/>
    <rect x="64.498" y="1" width="32" height="32" stroke="#E6E6E6" stroke-width="0.7"/>
    <rect x="128.498" y="33" width="32" height="32" stroke="#E6E6E6" stroke-width="0.7"/>
    <rect x="160.498" y="97" width="32" height="32" stroke="#E6E6E6" stroke-width="0.7"/>
    <rect x="192.498" y="97" width="32" height="32" stroke="#E6E6E6" stroke-width="0.7"/>
    <rect x="224.498" y="1" width="32" height="32" stroke="#E6E6E6" stroke-width="0.7"/>
    <rect x="256.498" y="97" width="32" height="32" stroke="#E6E6E6" stroke-width="0.7"/>
    <rect x="256.498" y="129" width="32" height="32" stroke="#E6E6E6" stroke-width="0.7"/>
    <rect x="288.498" y="97" width="32" height="32" stroke="#E6E6E6" stroke-width="0.7"/>
    <rect x="288.498" y="129" width="32" height="32" stroke="#E6E6E6" stroke-width="0.7"/>
    <rect x="320.498" y="129" width="32" height="32" stroke="#E6E6E6" stroke-width="0.7"/>
    <rect x="352.498" y="129" width="32" height="32" stroke="#E6E6E6" stroke-width="0.7"/>
    <rect x="192.498" y="129" width="32" height="32" stroke="#E6E6E6" stroke-width="0.7"/>
    <rect x="0.498047" y="33" width="32" height="32" stroke="#E6E6E6" stroke-width="0.7"/>
    <rect x="0.498047" y="65" width="32" height="32" stroke="#E6E6E6" stroke-width="0.7"/>
    <rect x="0.498047" y="97" width="32" height="32" stroke="#E6E6E6" stroke-width="0.7"/>
    <rect x="0.498047" y="129" width="32" height="32" stroke="#E6E6E6" stroke-width="0.7"/>
    <rect x="32.498" y="129" width="32" height="32" stroke="#E6E6E6" stroke-width="0.7"/>
    <rect x="96.498" y="129" width="32" height="32" stroke="#E6E6E6" stroke-width="0.7"/>
    <rect x="224.498" y="65" width="32" height="32" stroke="#F1DF38" stroke-width="0.7"/>
    <rect x="32.498" y="65" width="32" height="32" stroke="#7A3DFC" stroke-width="0.7"/>
    <rect x="64.498" y="129" width="32" height="32" stroke="#4AA12C" stroke-width="0.7"/>
</svg>
